# xmcd CD Database Entry
#
# Track frame offsets:
# 150
# 8040
# 32121
# 51118
# 69549
# 72573
# 90026
# 109918
# 131493
# 152964
# 164322
# 187623
# 205356
# 222887
# 245132
# 253835
# 269650
# 283690
# 300226
#
# Disc length: 4239 seconds
#
# Revision: 1
# Processed by: cddbd v1.4b41PL1 Copyright (c) Steve Scherf et al.
# Submitted via: tcd 2.0b
#
DISCID=12108d13
DTITLE=turntablerocker
DYEAR=1900
DGENRE=
TTITLE0=Spur 1
TTITLE1=Spur 2
TTITLE2=Spur 3
TTITLE3=Spur 4
TTITLE4=Spur 5
TTITLE5=Spur 6
TTITLE6=Spur 7
TTITLE7=Spur 8
TTITLE8=Spur 9
TTITLE9=Spur 10
TTITLE10=Spur 11
TTITLE11=Spur 12
TTITLE12=Spur 13
TTITLE13=Spur 14
TTITLE14=Spur 15
TTITLE15=Spur 16
TTITLE16=Spur 17
TTITLE17=Spur 18
TTITLE18=Spur 19
EXTD=
EXTT0=
EXTT1=
EXTT2=
EXTT3=
EXTT4=
EXTT5=
EXTT6=
EXTT7=
EXTT8=
EXTT9=
EXTT10=
EXTT11=
EXTT12=
EXTT13=
EXTT14=
EXTT15=
EXTT16=
EXTT17=
EXTT18=
PLAYORDER=
